HIERARCHY
ROOT hip
{
  OFFSET 0 0 0
  CHANNELS 6 Xposition Yposition Zposition Zrotation Yrotation Xrotation
  JOINT abdomen
  {
    OFFSET 0 20.6881 -0.73152
    CHANNELS 3 Zrotation Xrotation Yrotation
    JOINT chest
    {
      OFFSET 0 11.7043 -0.48768
      CHANNELS 3 Zrotation Xrotation Yrotation
      JOINT neck
      {
        OFFSET 0 22.1894 -2.19456
        CHANNELS 3 Zrotation Xrotation Yrotation
        JOINT head
        {
          OFFSET -0.24384 7.07133 1.2192
          CHANNELS 3 Zrotation Xrotation Yrotation
          JOINT leftEye
          {
            OFFSET 4.14528 8.04674 8.04672
            CHANNELS 3 Zrotation Xrotation Yrotation
            End Site
            {
              OFFSET 1 0 0
            }
          }
          JOINT rightEye
          {
            OFFSET -3.6576 8.04674 8.04672
            CHANNELS 3 Zrotation Xrotation Yrotation
            End Site
            {
              OFFSET 1 0 0
            }
          }
        }
      }
      JOINT rCollar
      {
        OFFSET -2.68224 19.2634 -4.8768
        CHANNELS 3 Zrotation Xrotation Yrotation
        JOINT rShldr
        {
          OFFSET -8.77824 -1.95073 1.46304
          CHANNELS 3 Zrotation Xrotation Yrotation
          JOINT rForeArm
          {
            OFFSET -28.1742 -1.7115 0.48768
            CHANNELS 3 Zrotation Xrotation Yrotation
            JOINT rHand
            {
              OFFSET -22.5879 0.773209 7.07136
              CHANNELS 3 Zrotation Xrotation Yrotation
              JOINT rThumb1
              {
                OFFSET -1.2192 -0.487915 3.41376
                CHANNELS 3 Zrotation Xrotation Yrotation
                JOINT rThumb2
                {
                  OFFSET -3.37035 -0.52449 3.41376
                  CHANNELS 3 Zrotation Xrotation Yrotation
                  End Site
                  {
                    OFFSET -1.78271 -1.18214 1.43049
                  }
                }
              }
              JOINT rIndex1
              {
                OFFSET -7.75947 0.938293 5.60832
                CHANNELS 3 Zrotation Xrotation Yrotation
                JOINT rIndex2
                {
                  OFFSET -2.54057 -0.884171 1.56538
                  CHANNELS 3 Zrotation Xrotation Yrotation
                  End Site
                  {
                    OFFSET -1.62519 -0.234802 1.16502
                  }
                }
              }
              JOINT rMid1
              {
                OFFSET -8.24714 1.18213 3.41376
                CHANNELS 3 Zrotation Xrotation Yrotation
                JOINT rMid2
                {
                  OFFSET -3.10165 -0.590103 1.0647
                  CHANNELS 3 Zrotation Xrotation Yrotation
                  End Site
                  {
                    OFFSET -2.48547 -0.328903 0.83742
                  }
                }
              }
              JOINT rRing1
              {
                OFFSET -8.82822 0.546677 1.51678
                CHANNELS 3 Zrotation Xrotation Yrotation
                JOINT rRing2
                {
                  OFFSET -2.60934 -0.819778 -0.0198488
                  CHANNELS 3 Zrotation Xrotation Yrotation
                  End Site
                  {
                    OFFSET -2.33842 -0.294052 0.168128
                  }
                }
              }
              JOINT rPinky1
              {
                OFFSET -8.27202 -0.0477905 -0.4584
                CHANNELS 3 Zrotation Xrotation Yrotation
                JOINT rPinky2
                {
                  OFFSET -1.82734 -0.647385 -0.700984
                  CHANNELS 3 Zrotation Xrotation Yrotation
                  End Site
                  {
                    OFFSET -1.69225 -0.51767 -0.607171
                  }
                }
              }
            }
          }
        }
      }
      JOINT lCollar
      {
        OFFSET 2.68224 19.2634 -4.8768
        CHANNELS 3 Zrotation Xrotation Yrotation
        JOINT lShldr
        {
          OFFSET 8.77824 -1.95073 1.46304
          CHANNELS 3 Zrotation Xrotation Yrotation
          JOINT lForeArm
          {
            OFFSET 28.1742 -1.7115 0.48768
            CHANNELS 3 Zrotation Xrotation Yrotation
            JOINT lHand
            {
              OFFSET 22.5879 0.773209 7.07136
              CHANNELS 3 Zrotation Xrotation Yrotation
              JOINT lThumb1
              {
                OFFSET 1.2192 -0.487915 3.41376
                CHANNELS 3 Zrotation Xrotation Yrotation
                JOINT lThumb2
                {
                  OFFSET 3.37035 -0.52449 3.41376
                  CHANNELS 3 Zrotation Xrotation Yrotation
                  End Site
                  {
                    OFFSET 1.78271 -1.18214 1.43049
                  }
                }
              }
              JOINT lIndex1
              {
                OFFSET 7.75947 0.938293 5.60832
                CHANNELS 3 Zrotation Xrotation Yrotation
                JOINT lIndex2
                {
                  OFFSET 2.54057 -0.884171 1.56538
                  CHANNELS 3 Zrotation Xrotation Yrotation
                  End Site
                  {
                    OFFSET 1.62519 -0.234802 1.16502
                  }
                }
              }
              JOINT lMid1
              {
                OFFSET 8.24714 1.18213 3.41376
                CHANNELS 3 Zrotation Xrotation Yrotation
                JOINT lMid2
                {
                  OFFSET 3.10165 -0.590103 1.0647
                  CHANNELS 3 Zrotation Xrotation Yrotation
                  End Site
                  {
                    OFFSET 2.48547 -0.328903 0.83742
                  }
                }
              }
              JOINT lRing1
              {
                OFFSET 8.82822 0.546677 1.51678
                CHANNELS 3 Zrotation Xrotation Yrotation
                JOINT lRing2
                {
                  OFFSET 2.60934 -0.819778 -0.0198488
                  CHANNELS 3 Zrotation Xrotation Yrotation
                  End Site
                  {
                    OFFSET 2.33842 -0.294052 0.168128
                  }
                }
              }
              JOINT lPinky1
              {
                OFFSET 8.27202 -0.0477905 -0.4584
                CHANNELS 3 Zrotation Xrotation Yrotation
                JOINT lPinky2
                {
                  OFFSET 1.82734 -0.647385 -0.700984
                  CHANNELS 3 Zrotation Xrotation Yrotation
                  End Site
                  {
                    OFFSET 1.69225 -0.51767 -0.607171
                  }
                }
              }
            }
          }
        }
      }
    }
  }
  JOINT rButtock
  {
    OFFSET -8.77824 4.35084 1.2192
    CHANNELS 3 Zrotation Xrotation Yrotation
    JOINT rThigh
    {
      OFFSET 0 -1.70687 -2.19456
      CHANNELS 3 Zrotation Xrotation Yrotation
      JOINT rShin
      {
        OFFSET 0 -36.8199 0.73152
        CHANNELS 3 Zrotation Xrotation Yrotation
        JOINT rFoot
        {
          OFFSET 0.73152 -45.1104 -5.12064
          CHANNELS 3 Zrotation Xrotation Yrotation
          End Site
          {
            OFFSET -1.1221 -3.69964 12.103
          }
        }
      }
    }
  }
  JOINT lButtock
  {
    OFFSET 8.77824 4.35084 1.2192
    CHANNELS 3 Zrotation Xrotation Yrotation
    JOINT lThigh
    {
      OFFSET 0 -1.70687 -2.19456
      CHANNELS 3 Zrotation Xrotation Yrotation
      JOINT lShin
      {
        OFFSET 0 -36.8199 0.73152
        CHANNELS 3 Zrotation Xrotation Yrotation
        JOINT lFoot
        {
          OFFSET -0.73152 -45.1104 -5.12064
          CHANNELS 3 Zrotation Xrotation Yrotation
          End Site
          {
            OFFSET 1.1221 -3.69964 12.103
          }
        }
      }
    }
  }
}
MOTION
Frames:	7
Frame Time:	0.00833333
24.0954 93.3455 -4.16502 -93.7996 85.4702 -86.2619 -2.00318 29.1742 -1.1592 2.82452 -11.8692 -0.194624 5.64996 11.7018 0.424728 -12.6975 -44.6464 -4.26262 -0.0 0.0 0.0 -0.0 0.0 0.0 -1.15021e-13 4.16477e-12 -3.29486e-14 29.8662 28.5307 -11.5861 -20.3746 -13.4904 39.5973 -0.00835205 -2.60845 -0.366849 -8.80664e-10 -2.72702e-09 -5.31894e-10 -1.52283e-09 -4.71457e-09 -9.22987e-10 -8.80666e-10 -2.72705e-09 -5.31906e-10 7.73091 5.47488 0.417314 -8.80663e-10 -2.72703e-09 -5.31897e-10 2.90554 0.965183 0.102902 -8.80656e-10 -2.72703e-09 -5.31894e-10 10.2786 0.731801 0.0259123 -8.80671e-10 -2.72703e-09 -5.31887e-10 2.22167 -0.733487 -0.20892 -1.14981e-13 4.16477e-12 -3.29983e-14 -11.941 -5.8889 -8.75909 28.204 -32.0125 -70.4738 0.0877089 -8.41806 1.19175 9.20177e-11 1.10577e-09 -1.08139e-09 1.67383e-10 1.91e-09 -1.87047e-09 9.20111e-11 1.10577e-09 -1.08138e-09 -7.73091 5.47488 -0.417314 9.20195e-11 1.10577e-09 -1.08139e-09 -2.90554 0.965183 -0.102902 9.20059e-11 1.10577e-09 -1.08138e-09 -10.2786 0.731801 -0.0259123 9.20194e-11 1.10577e-09 -1.08138e-09 -2.22167 -0.733487 0.20892 -2.03217e-16 0.0 -3.88251e-19 -6.78411 -68.6281 11.3911 -175.84 67.3221 175.342 -0.0656713 -2.53142 2.61115 2.03217e-16 0.0 3.88251e-19 0.0343878 0.335169 -1.36465 -0.0984127 18.0272 -1.19469 3.50085 16.2563 -9.24716
25.5452 94.2484 -4.20861 -97.9934 85.7025 -90.7174 -1.43678 29.1131 -1.40955 2.78021 -11.8975 -0.196354 5.58346 11.972 0.362591 -12.9384 -44.2501 -4.44817 -0.0 0.0 0.0 -0.0 0.0 0.0 -6.38047e-14 3.18175e-12 -3.61078e-14 29.102 26.5873 -11.6333 -19.9321 -12.9309 38.5047 -0.000706829 -1.67823 -0.235883 -1.15938e-09 -2.47793e-09 -2.61097e-10 -2.00566e-09 -4.28646e-09 -4.531e-10 -1.15938e-09 -2.47795e-09 -2.61111e-10 7.73091 5.47488 0.417314 -1.15938e-09 -2.47794e-09 -2.611e-10 2.90554 0.965183 0.102902 -1.15937e-09 -2.47794e-09 -2.61097e-10 10.2786 0.731801 0.0259123 -1.15938e-09 -2.47794e-09 -2.61092e-10 2.22167 -0.733487 -0.20892 -6.38177e-14 3.18175e-12 -3.62106e-14 -12.3005 -6.60745 -9.38397 28.1901 -31.9071 -70.3097 0.0879055 -8.42716 1.19306 5.88822e-10 1.01231e-09 -4.80974e-10 1.02072e-09 1.75306e-09 -8.29395e-10 5.88817e-10 1.01231e-09 -4.80966e-10 -7.73091 5.47488 -0.417314 5.88824e-10 1.01231e-09 -4.80977e-10 -2.90554 0.965183 -0.102902 5.88811e-10 1.01231e-09 -4.80967e-10 -10.2786 0.731801 -0.0259123 5.88824e-10 1.01231e-09 -4.80973e-10 -2.22167 -0.733487 0.20892 -2.03217e-16 0.0 -3.88251e-19 -5.39309 -68.291 13.6008 -175.44 70.249 175.08 -0.405179 -3.11759 2.02372 2.03217e-16 0.0 3.88251e-19 -0.122726 1.63584 -1.2249 -0.1108 17.0053 -1.26918 3.65909 19.0417 -8.57395
26.9951 95.3601 -4.2887 -104.27 85.9956 -97.194 -1.04064 29.021 -1.60211 2.68271 -11.9284 -0.200519 5.50288 12.3255 0.251369 -13.0144 -43.9929 -4.66811 -0.0 0.0 0.0 -0.0 0.0 0.0 3.21545e-14 1.22042e-12 -2.94729e-14 28.6286 24.3541 -11.7146 -19.4608 -12.3572 37.3614 0.00373044 -0.490016 -0.0688216 -1.45604e-09 -1.66861e-09 2.47649e-10 -2.52021e-09 -2.89119e-09 4.29572e-10 -1.45603e-09 -1.66861e-09 2.47632e-10 7.73091 5.47488 0.417314 -1.45604e-09 -1.66861e-09 2.47647e-10 2.90554 0.965183 0.102902 -1.45603e-09 -1.66862e-09 2.4765e-10 10.2786 0.731801 0.0259123 -1.45605e-09 -1.66861e-09 2.47654e-10 2.22167 -0.733487 -0.20892 3.20427e-14 1.22042e-12 -2.96873e-14 -12.863 -7.13854 -10.2641 28.1834 -31.8546 -70.2249 0.0876001 -8.4127 1.19098 1.4079e-09 6.89393e-10 4.89443e-10 2.42749e-09 1.20227e-09 8.53728e-10 1.4079e-09 6.89393e-10 4.89449e-10 -7.73091 5.47488 -0.417314 1.4079e-09 6.89393e-10 4.89437e-10 -2.90554 0.965183 -0.102902 1.40789e-09 6.89393e-10 4.89445e-10 -10.2786 0.731801 -0.0259123 1.4079e-09 6.89394e-10 4.89434e-10 -2.22167 -0.733487 0.20892 -2.03217e-16 0.0 -3.88251e-19 -4.43919 -67.6443 15.3808 -174.791 73.6727 174.562 -0.597757 -3.5923 1.75845 2.03217e-16 0.0 3.88251e-19 -0.386802 3.16466 -1.25476 -0.124119 15.5188 -1.32951 3.79141 21.7428 -7.95127
28.3892 96.4334 -4.37263 -113.548 86.3135 -106.621 -0.752167 28.9361 -1.77296 2.61979 -11.9276 -0.203762 5.43554 12.6765 0.114448 -13.081 -43.7869 -4.93745 -0.0 0.0 0.0 -0.0 0.0 0.0 1.24958e-13 -7.96328e-13 -2.2849e-14 28.3918 22.0807 -11.871 -18.9983 -11.8095 36.2772 0.00199306 0.71919 0.101099 -1.69691e-09 -7.96194e-10 7.48401e-10 -2.93823e-09 -1.38686e-09 1.29857e-09 -1.69689e-09 -7.96168e-10 7.48382e-10 7.73091 5.47488 0.417314 -1.69691e-09 -7.96192e-10 7.48401e-10 2.90554 0.965183 0.102902 -1.69689e-09 -7.96194e-10 7.48403e-10 10.2786 0.731801 0.0259123 -1.69691e-09 -7.96194e-10 7.48407e-10 2.22167 -0.733487 -0.20892 1.24753e-13 -7.96328e-13 -2.31794e-14 -13.5676 -7.37723 -11.2513 28.1817 -31.8377 -70.1945 0.0871466 -8.39122 1.1879 2.18669e-09 3.26918e-10 1.40375e-09 3.76503e-09 5.82672e-10 2.43967e-09 2.18669e-09 3.26919e-10 1.40375e-09 -7.73091 5.47488 -0.417314 2.18669e-09 3.26919e-10 1.40374e-09 -2.90554 0.965183 -0.102902 2.18669e-09 3.26919e-10 1.40375e-09 -10.2786 0.731801 -0.0259123 2.1867e-09 3.2692e-10 1.40373e-09 -2.22167 -0.733487 0.20892 -2.03217e-16 0.0 -3.88251e-19 -3.93355 -66.7685 16.7191 -173.674 77.4224 173.562 -0.669911 -3.88849 1.75992 2.03217e-16 0.0 3.88251e-19 -0.648832 4.24589 -1.2485 -0.134753 14.8172 -1.38028 3.92828 24.0599 -7.64303
29.7295 97.4552 -4.45864 -126.865 86.5666 -120.042 -0.508462 28.8962 -1.95832 2.67924 -11.8608 -0.202725 5.40749 12.939 -0.0245226 -13.2914 -43.5441 -5.26988 -0.0 0.0 0.0 -0.0 0.0 0.0 1.66709e-13 -1.94561e-12 -2.60408e-14 28.3337 20.0166 -12.1349 -18.5908 -11.3363 35.3594 -0.00359755 1.71237 0.24073 -1.80821e-09 -3.57821e-10 9.95215e-10 -3.13147e-09 -6.31579e-10 1.72742e-09 -1.80819e-09 -3.57784e-10 9.95196e-10 7.73091 5.47488 0.417314 -1.80821e-09 -3.57819e-10 9.95215e-10 2.90554 0.965183 0.102902 -1.8082e-09 -3.57819e-10 9.95217e-10 10.2786 0.731801 0.0259123 -1.80821e-09 -3.5782e-10 9.95221e-10 2.22167 -0.733487 -0.20892 1.66465e-13 -1.94561e-12 -2.64384e-14 -14.3396 -7.2224 -12.1956 28.1821 -31.8387 -70.1939 0.0868948 -8.37925 1.18618 2.56264e-09 1.14798e-10 1.83583e-09 4.41067e-09 2.19296e-10 3.18919e-09 2.56265e-09 1.148e-10 1.83583e-09 -7.73091 5.47488 -0.417314 2.56265e-09 1.148e-10 1.83582e-09 -2.90554 0.965183 -0.102902 2.56264e-09 1.14799e-10 1.83582e-09 -10.2786 0.731801 -0.0259123 2.56265e-09 1.148e-10 1.83581e-09 -2.22167 -0.733487 0.20892 -2.03217e-16 0.0 -3.88251e-19 -3.84082 -65.7404 17.647 -171.464 81.3236 171.449 -0.653881 -3.9391 1.97245 2.03217e-16 0.0 3.88251e-19 -0.812593 4.20405 -0.998849 -0.135033 16.1498 -1.42632 4.14538 25.6901 -7.9281
30.9328 98.2658 -4.54678 -144.29 86.6097 -137.546 -0.327361 28.8853 -2.1516 2.90058 -11.6991 -0.192328 5.43525 13.0914 -0.163794 -13.7019 -43.264 -5.68738 -0.0 0.0 0.0 -0.0 0.0 0.0 1.23443e-13 -1.89777e-12 -3.98404e-14 28.4695 18.085 -12.5044 -18.2552 -10.9585 34.6122 -0.00903555 2.52609 0.355235 -1.75939e-09 -6.91085e-10 8.66889e-10 -3.04669e-09 -1.20869e-09 1.50635e-09 -1.75937e-09 -6.91051e-10 8.66873e-10 7.73091 5.47488 0.417314 -1.7594e-09 -6.91088e-10 8.66888e-10 2.90554 0.965183 0.102902 -1.75938e-09 -6.91083e-10 8.66891e-10 10.2786 0.731801 0.0259123 -1.7594e-09 -6.91083e-10 8.66896e-10 2.22167 -0.733487 -0.20892 1.23259e-13 -1.89777e-12 -4.02333e-14 -15.1977 -6.63467 -13.1121 28.1889 -31.8924 -70.2816 0.087621 -8.41163 1.19084 2.34498e-09 1.37981e-10 1.45061e-09 4.03736e-09 2.56906e-10 2.52176e-09 2.34498e-09 1.37983e-10 1.45061e-09 -7.73091 5.47488 -0.417314 2.34499e-09 1.37982e-10 1.4506e-09 -2.90554 0.965183 -0.102902 2.34498e-09 1.37982e-10 1.4506e-09 -10.2786 0.731801 -0.0259123 2.34499e-09 1.37984e-10 1.45059e-09 -2.22167 -0.733487 0.20892 -2.03217e-16 0.0 -3.88251e-19 -4.21197 -64.6029 18.1475 -165.069 85.3574 165.13 -0.508366 -3.69735 2.50849 2.03217e-16 0.0 3.88251e-19 -0.857542 2.61858 -0.387905 -0.12331 20.2844 -1.47818 4.5674 26.4554 -9.07563
32.0431 98.9933 -4.64868 -162.574 86.2753 -155.909 -0.230431 28.8918 -2.33911 3.23151 -11.4673 -0.175781 5.50115 13.1789 -0.314341 -14.2232 -42.9848 -6.17496 -0.0 0.0 0.0 -0.0 0.0 0.0 2.77716e-14 -1.17287e-12 -5.96261e-14 28.8049 16.2029 -12.9599 -17.9774 -10.6588 33.982 -0.0143255 3.25351 0.457737 -1.59342e-09 -1.4625e-09 5.13133e-10 -2.75865e-09 -2.54237e-09 8.94802e-10 -1.59341e-09 -1.46248e-09 5.13121e-10 7.73091 5.47488 0.417314 -1.59343e-09 -1.46252e-09 5.13129e-10 2.90554 0.965183 0.102902 -1.59342e-09 -1.4625e-09 5.13135e-10 10.2786 0.731801 0.0259123 -1.59343e-09 -1.4625e-09 5.13141e-10 2.22167 -0.733487 -0.20892 2.77067e-14 -1.17287e-12 -5.9974e-14 -16.1361 -5.67912 -14.0614 28.2013 -31.9946 -70.4496 0.0889241 -8.4694 1.19915 1.75844e-09 2.83747e-10 5.4916e-10 3.03085e-09 5.02788e-10 9.59443e-10 1.75843e-09 2.83749e-10 5.49168e-10 -7.73091 5.47488 -0.417314 1.75844e-09 2.83747e-10 5.49159e-10 -2.90554 0.965183 -0.102902 1.75843e-09 2.83748e-10 5.49163e-10 -10.2786 0.731801 -0.0259123 1.75844e-09 2.8375e-10 5.49149e-10 -2.22167 -0.733487 0.20892 -2.03217e-16 0.0 -3.88251e-19 -4.98074 -63.3177 18.2788 -97.5194 88.8811 97.6405 -0.243022 -3.20848 3.35475 2.03217e-16 0.0 3.88251e-19 -0.770514 -0.0707595 0.450306 -0.0919314 26.4098 -1.54743 5.14705 26.5285 -10.871
